Shah Sans-W500-T35-R0.4-C1.7.ufo
<glyph name="exclam" format="2">
  <advance width="280"/>
  <unicode hex="0021"/>
  <outline>
    <contour>
      <point x="140" y="106" type="qcurve" smooth="yes"/>
      <point x="199" y="106"/>
      <point x="199" y="47" type="qcurve" smooth="yes"/>
      <point x="199" y="-12"/>
      <point x="140" y="-12" type="qcurve" smooth="yes"/>
      <point x="81" y="-12"/>
      <point x="81" y="47" type="qcurve" smooth="yes"/>
      <point x="81" y="106"/>
    </contour>
    <contour>
      <point x="123" y="189" type="line"/>
      <point x="158" y="189" type="line"/>
      <point x="187" y="378" type="line"/>
      <point x="187" y="450" type="line"/>
      <point x="93" y="450" type="line"/>
      <point x="93" y="378" type="line"/>
    </contour>
  </outline>
</glyph>
<glyph name="quotedbl" format="2">
  <advance width="445"/>
  <unicode hex="0022"/>
  <outline>
    <contour>
      <point x="81" y="450" type="line"/>
      <point x="176" y="450" type="line"/>
      <point x="146" y="338" type="line"/>
      <point x="111" y="338" type="line"/>
    </contour>
    <contour>
      <point x="270" y="450" type="line"/>
      <point x="365" y="450" type="line"/>
      <point x="335" y="338" type="line"/>
      <point x="300" y="338" type="line"/>
    </contour>
  </outline>
</glyph>
<glyph name="quotesingle" format="2">
  <advance width="256"/>
  <unicode hex="0027"/>
  <outline>
    <contour>
      <point x="81" y="450" type="line"/>
      <point x="176" y="450" type="line"/>
      <point x="146" y="338" type="line"/>
      <point x="111" y="338" type="line"/>
    </contour>
  </outline>
</glyph>
<glyph name="parenright" format="2">
  <advance width="262"/>
  <unicode hex="0029"/>
  <outline>
    <contour>
      <point x="48" y="-150" type="line"/>
      <point x="131" y="-150"/>
      <point x="131" y="150" type="qcurve" smooth="yes"/>
      <point x="131" y="450"/>
      <point x="48" y="450" type="qcurve"/>
      <point x="143" y="450" type="line" smooth="yes"/>
      <point x="226" y="450"/>
      <point x="226" y="150" type="qcurve" smooth="yes"/>
      <point x="226" y="-150"/>
      <point x="143" y="-150" type="qcurve" smooth="yes"/>
    </contour>
  </outline>
</glyph>
<glyph name="comma" format="2">
  <advance width="292"/>
  <unicode hex="002C"/>
  <outline>
    <contour>
      <point x="81" y="23" type="line"/>
      <point x="104" y="85"/>
      <point x="166" y="62" type="qcurve" smooth="yes"/>
      <point x="228" y="40"/>
      <point x="205" y="-23" type="qcurve"/>
      <point x="114" y="-130" type="line"/>
      <point x="81" y="-118" type="line"/>
    </contour>
  </outline>
</glyph>
<glyph name="hyphen" format="2">
  <advance width="637"/>
  <unicode hex="002D"/>
  <outline>
    <contour>
      <point x="81" y="133" type="line"/>
      <point x="581" y="133" type="line"/>
      <point x="581" y="168" type="line"/>
      <point x="81" y="168" type="line"/>
    </contour>
  </outline>
</glyph>
<glyph name="period" format="2">
  <advance width="280"/>
  <unicode hex="002E"/>
  <outline>
    <contour>
      <point x="140" y="106" type="qcurve" smooth="yes"/>
      <point x="199" y="106"/>
      <point x="199" y="47" type="qcurve" smooth="yes"/>
      <point x="199" y="-12"/>
      <point x="140" y="-12" type="qcurve" smooth="yes"/>
      <point x="81" y="-12"/>
      <point x="81" y="47" type="qcurve" smooth="yes"/>
      <point x="81" y="106"/>
    </contour>
  </outline>
</glyph>
<glyph name="colon" format="2">
  <advance width="280"/>
  <unicode hex="003A"/>
  <outline>
    <contour>
      <point x="140" y="106" type="qcurve" smooth="yes"/>
      <point x="199" y="106"/>
      <point x="199" y="47" type="qcurve" smooth="yes"/>
      <point x="199" y="-12"/>
      <point x="140" y="-12" type="qcurve" smooth="yes"/>
      <point x="81" y="-12"/>
      <point x="81" y="47" type="qcurve" smooth="yes"/>
      <point x="81" y="106"/>
    </contour>
    <contour>
      <point x="140" y="312" type="qcurve" smooth="yes"/>
      <point x="199" y="312"/>
      <point x="199" y="253" type="qcurve" smooth="yes"/>
      <point x="199" y="194"/>
      <point x="140" y="194" type="qcurve" smooth="yes"/>
      <point x="81" y="194"/>
      <point x="81" y="253" type="qcurve" smooth="yes"/>
      <point x="81" y="312"/>
    </contour>
  </outline>
</glyph>
<glyph name="bracketleft" format="2">
  <advance width="292"/>
  <unicode hex="005B"/>
  <outline>
    <contour>
      <point x="81" y="-150" type="line"/>
      <point x="81" y="450" type="line"/>
      <point x="212" y="450" type="line"/>
      <point x="212" y="415" type="line"/>
      <point x="176" y="415" type="line"/>
      <point x="176" y="-115" type="line"/>
      <point x="212" y="-115" type="line"/>
      <point x="212" y="-150" type="line"/>
    </contour>
  </outline>
</glyph>
<glyph name="bracketright" format="2">
  <advance width="292"/>
  <unicode hex="005D"/>
  <outline>
    <contour>
      <point x="81" y="-150" type="line"/>
      <point x="212" y="-150" type="line"/>
      <point x="212" y="450" type="line"/>
      <point x="81" y="450" type="line"/>
      <point x="81" y="415" type="line"/>
      <point x="117" y="415" type="line"/>
      <point x="117" y="-115" type="line"/>
      <point x="81" y="-115" type="line"/>
    </contour>
  </outline>
</glyph>
<glyph name="underscore" format="2">
  <advance width="662"/>
  <unicode hex="005F"/>
  <outline>
    <contour>
      <point x="81" y="-35" type="line"/>
      <point x="581" y="-35" type="line"/>
      <point x="581" y="0" type="line"/>
      <point x="81" y="0" type="line"/>
    </contour>
  </outline>
</glyph>
<glyph name="grave" format="2">
  <advance width="279"/>
  <unicode hex="0060"/>
  <outline>
    <contour>
      <point x="176" y="450" type="line"/>
      <point x="81" y="450" type="line"/>
      <point x="163" y="405" type="line"/>
      <point x="198" y="405" type="line"/>
    </contour>
  </outline>
</glyph>
<glyph name="a" format="2">
  <advance width="654"/>
  <unicode hex="0061"/>
  <outline>
    <contour>
      <point x="53" y="200" type="line"/>
      <point x="53" y="304"/>
      <point x="280" y="304" type="qcurve" smooth="yes"/>
      <point x="370" y="304" type="line" smooth="yes"/>
      <point x="597" y="304"/>
      <point x="597" y="200" type="qcurve" smooth="yes"/>
      <point x="597" y="0" type="line"/>
      <point x="503" y="0" type="line"/>
      <point x="503" y="200" type="line" smooth="yes"/>
      <point x="503" y="269"/>
      <point x="370" y="269" type="qcurve" smooth="yes"/>
      <point x="280" y="269" type="line" smooth="yes"/>
      <point x="147" y="269"/>
      <point x="147" y="200" type="qcurve"/>
    </contour>
    <contour>
      <point x="503" y="215" type="line" smooth="yes"/>
      <point x="503" y="165"/>
      <point x="453" y="165" type="qcurve" smooth="yes"/>
      <point x="280" y="165" type="line" smooth="yes"/>
      <point x="152" y="165"/>
      <point x="152" y="100" type="qcurve" smooth="yes"/>
      <point x="152" y="32"/>
      <point x="280" y="32" type="qcurve" smooth="yes"/>
      <point x="370" y="32" type="line" smooth="yes"/>
      <point x="503" y="32"/>
      <point x="503" y="85" type="qcurve"/>
      <point x="503" y="50" type="line" smooth="yes"/>
      <point x="503" y="-3"/>
      <point x="370" y="-3" type="qcurve" smooth="yes"/>
      <point x="280" y="-3" type="line" smooth="yes"/>
      <point x="48" y="-3"/>
      <point x="48" y="100" type="qcurve" smooth="yes"/>
      <point x="48" y="200"/>
      <point x="280" y="200" type="qcurve" smooth="yes"/>
      <point x="453" y="200" type="line" smooth="yes"/>
      <point x="503" y="200"/>
      <point x="503" y="250" type="qcurve"/>
    </contour>
  </outline>
</glyph>
<glyph name="b" format="2">
  <advance width="687"/>
  <unicode hex="0062"/>
  <outline>
    <contour>
      <point x="81" y="0" type="line"/>
      <point x="81" y="450" type="line"/>
      <point x="176" y="450" type="line"/>
      <point x="176" y="269" type="line"/>
      <point x="146" y="180" type="line"/>
      <point x="176" y="32" type="line"/>
      <point x="176" y="0" type="line"/>
    </contour>
    <contour>
      <point x="318" y="304" type="qcurve" smooth="yes"/>
      <point x="413" y="304" type="line" smooth="yes"/>
      <point x="651" y="304"/>
      <point x="651" y="180" type="qcurve" smooth="yes"/>
      <point x="651" y="120" type="line" smooth="yes"/>
      <point x="651" y="-3"/>
      <point x="413" y="-3" type="qcurve" smooth="yes"/>
      <point x="318" y="-3" type="line" smooth="yes"/>
      <point x="146" y="-3"/>
      <point x="146" y="120" type="qcurve" smooth="yes"/>
      <point x="146" y="180" type="line" smooth="yes"/>
      <point x="146" y="304"/>
    </contour>
    <contour>
      <point x="315" y="269" type="line" smooth="yes"/>
      <point x="172" y="269"/>
      <point x="172" y="180" type="qcurve" smooth="yes"/>
      <point x="172" y="120" type="line" smooth="yes"/>
      <point x="172" y="32"/>
      <point x="315" y="32" type="qcurve" smooth="yes"/>
      <point x="410" y="32" type="line" smooth="yes"/>
      <point x="553" y="32"/>
      <point x="553" y="120" type="qcurve" smooth="yes"/>
      <point x="553" y="180" type="line" smooth="yes"/>
      <point x="553" y="269"/>
      <point x="410" y="269" type="qcurve" smooth="yes"/>
    </contour>
  </outline>
</glyph>
<glyph name="c" format="2">
  <advance width="658"/>
  <unicode hex="0063"/>
  <outline>
    <contour>
      <point x="511" y="180" type="line"/>
      <point x="506" y="269"/>
      <point x="370" y="269" type="qcurve" smooth="yes"/>
      <point x="276" y="269" type="line" smooth="yes"/>
      <point x="140" y="269"/>
      <point x="140" y="180" type="qcurve" smooth="yes"/>
      <point x="140" y="120" type="line" smooth="yes"/>
      <point x="140" y="32"/>
      <point x="276" y="32" type="qcurve" smooth="yes"/>
      <point x="370" y="32" type="line" smooth="yes"/>
      <point x="506" y="32"/>
      <point x="506" y="120" type="qcurve"/>
      <point x="610" y="120" type="line"/>
      <point x="610" y="-3"/>
      <point x="370" y="-3" type="qcurve" smooth="yes"/>
      <point x="276" y="-3" type="line" smooth="yes"/>
      <point x="36" y="-3"/>
      <point x="36" y="120" type="qcurve" smooth="yes"/>
      <point x="36" y="180" type="line" smooth="yes"/>
      <point x="36" y="304"/>
      <point x="276" y="304" type="qcurve" smooth="yes"/>
      <point x="370" y="304" type="line" smooth="yes"/>
      <point x="610" y="304"/>
      <point x="610" y="180" type="qcurve"/>
    </contour>
  </outline>
</glyph>
<glyph name="d" format="2">
  <advance width="696"/>
  <unicode hex="0064"/>
  <outline>
    <contour>
      <point x="283" y="304" type="qcurve" smooth="yes"/>
      <point x="378" y="304" type="line" smooth="yes"/>
      <point x="550" y="304"/>
      <point x="550" y="180" type="qcurve" smooth="yes"/>
      <point x="550" y="120" type="line" smooth="yes"/>
      <point x="550" y="-3"/>
      <point x="378" y="-3" type="qcurve" smooth="yes"/>
      <point x="283" y="-3" type="line" smooth="yes"/>
      <point x="36" y="-3"/>
      <point x="36" y="120" type="qcurve" smooth="yes"/>
      <point x="36" y="180" type="line" smooth="yes"/>
      <point x="36" y="304"/>
    </contour>
    <contour>
      <point x="283" y="269" type="line" smooth="yes"/>
      <point x="140" y="269"/>
      <point x="140" y="180" type="qcurve" smooth="yes"/>
      <point x="140" y="120" type="line" smooth="yes"/>
      <point x="140" y="32"/>
      <point x="283" y="32" type="qcurve" smooth="yes"/>
      <point x="378" y="32" type="line" smooth="yes"/>
      <point x="524" y="32"/>
      <point x="524" y="120" type="qcurve" smooth="yes"/>
      <point x="524" y="180" type="line" smooth="yes"/>
      <point x="524" y="269"/>
      <point x="378" y="269" type="qcurve" smooth="yes"/>
    </contour>
    <contour>
      <point x="520" y="450" type="line"/>
      <point x="615" y="450" type="line"/>
      <point x="615" y="0" type="line"/>
      <point x="520" y="0" type="line"/>
      <point x="520" y="32" type="line"/>
      <point x="550" y="120" type="line"/>
      <point x="520" y="269" type="line"/>
    </contour>
  </outline>
</glyph>
<glyph name="e" format="2">
  <advance width="679"/>
  <unicode hex="0065"/>
  <outline>
    <contour>
      <point x="536" y="180" type="line"/>
      <point x="536" y="269"/>
      <point x="383" y="269" type="qcurve" smooth="yes"/>
      <point x="283" y="269" type="line" smooth="yes"/>
      <point x="131" y="269"/>
      <point x="131" y="180" type="qcurve" smooth="yes"/>
      <point x="131" y="120" type="line" smooth="yes"/>
      <point x="131" y="32"/>
      <point x="283" y="32" type="qcurve" smooth="yes"/>
      <point x="383" y="32" type="line" smooth="yes"/>
      <point x="536" y="32"/>
      <point x="536" y="120" type="qcurve"/>
      <point x="631" y="120" type="line"/>
      <point x="631" y="-3"/>
      <point x="383" y="-3" type="qcurve" smooth="yes"/>
      <point x="283" y="-3" type="line" smooth="yes"/>
      <point x="36" y="-3"/>
      <point x="36" y="120" type="qcurve" smooth="yes"/>
      <point x="36" y="180" type="line" smooth="yes"/>
      <point x="36" y="304"/>
      <point x="283" y="304" type="qcurve" smooth="yes"/>
      <point x="383" y="304" type="line" smooth="yes"/>
      <point x="631" y="304"/>
      <point x="631" y="180" type="qcurve" smooth="yes"/>
      <point x="631" y="151" type="line"/>
      <point x="131" y="151" type="line"/>
      <point x="131" y="186" type="line"/>
      <point x="536" y="186" type="line"/>
    </contour>
  </outline>
</glyph>
<glyph name="f" format="2">
  <advance width="345"/>
  <unicode hex="0066"/>
  <outline>
    <contour>
      <point x="331" y="390" type="line"/>
      <point x="331" y="419"/>
      <point x="278" y="419" type="qcurve" smooth="yes"/>
      <point x="228" y="419" type="line" smooth="yes"/>
      <point x="176" y="419"/>
      <point x="176" y="390" type="qcurve" smooth="yes"/>
      <point x="176" y="300" type="line"/>
      <point x="278" y="300" type="line"/>
      <point x="278" y="265" type="line"/>
      <point x="176" y="265" type="line"/>
      <point x="176" y="0" type="line"/>
      <point x="81" y="0" type="line"/>
      <point x="81" y="300" type="line"/>
      <point x="81" y="390" type="line" smooth="yes"/>
      <point x="81" y="454"/>
      <point x="228" y="454" type="qcurve" smooth="yes"/>
      <point x="278" y="454" type="line" smooth="yes"/>
      <point x="426" y="454"/>
      <point x="426" y="390" type="qcurve"/>
    </contour>
  </outline>
</glyph>
<glyph name="g" format="2">
  <advance width="637"/>
  <unicode hex="0067"/>
  <outline>
    <contour>
      <point x="246" y="304" type="qcurve" smooth="yes"/>
      <point x="336" y="304" type="line" smooth="yes"/>
      <point x="516" y="304"/>
      <point x="516" y="180" type="qcurve" smooth="yes"/>
      <point x="516" y="120" type="line" smooth="yes"/>
      <point x="516" y="-3"/>
      <point x="336" y="-3" type="qcurve" smooth="yes"/>
      <point x="246" y="-3" type="line" smooth="yes"/>
      <point x="36" y="-3"/>
      <point x="36" y="120" type="qcurve" smooth="yes"/>
      <point x="36" y="180" type="line" smooth="yes"/>
      <point x="36" y="304"/>
    </contour>
    <contour>
      <point x="267" y="269" type="line" smooth="yes"/>
      <point x="134" y="269"/>
      <point x="134" y="180" type="qcurve" smooth="yes"/>
      <point x="134" y="120" type="line" smooth="yes"/>
      <point x="134" y="32"/>
      <point x="267" y="32" type="qcurve" smooth="yes"/>
      <point x="357" y="32" type="line" smooth="yes"/>
      <point x="490" y="32"/>
      <point x="490" y="120" type="qcurve" smooth="yes"/>
      <point x="490" y="180" type="line" smooth="yes"/>
      <point x="490" y="269"/>
      <point x="357" y="269" type="qcurve" smooth="yes"/>
    </contour>
    <contour>
      <point x="486" y="0" type="line"/>
      <point x="486" y="32" type="line"/>
      <point x="516" y="120" type="line"/>
      <point x="486" y="269" type="line"/>
      <point x="486" y="300" type="line"/>
      <point x="581" y="300" type="line"/>
      <point x="581" y="0" type="line"/>
      <point x="581" y="-50" type="line" smooth="yes"/>
      <point x="581" y="-153"/>
      <point x="353" y="-153" type="qcurve" smooth="yes"/>
      <point x="263" y="-153" type="line" smooth="yes"/>
      <point x="36" y="-153"/>
      <point x="36" y="-50" type="qcurve"/>
      <point x="131" y="-50" type="line"/>
      <point x="131" y="-118"/>
      <point x="263" y="-118" type="qcurve" smooth="yes"/>
      <point x="353" y="-118" type="line" smooth="yes"/>
      <point x="486" y="-118"/>
      <point x="486" y="-50" type="qcurve" smooth="yes"/>
    </contour>
  </outline>
</glyph>
<glyph name="h" format="2">
  <advance width="657"/>
  <unicode hex="0068"/>
  <outline>
    <contour>
      <point x="81" y="0" type="line"/>
      <point x="81" y="450" type="line"/>
      <point x="176" y="450" type="line"/>
      <point x="176" y="0" type="line"/>
    </contour>
    <contour>
      <point x="158" y="200" type="line"/>
      <point x="158" y="304"/>
      <point x="298" y="304" type="qcurve" smooth="yes"/>
      <point x="383" y="304" type="line" smooth="yes"/>
      <point x="601" y="304"/>
      <point x="601" y="200" type="qcurve" smooth="yes"/>
      <point x="601" y="0" type="line"/>
      <point x="506" y="0" type="line"/>
      <point x="506" y="200" type="line" smooth="yes"/>
      <point x="506" y="269"/>
      <point x="383" y="269" type="qcurve" smooth="yes"/>
      <point x="298" y="269" type="line" smooth="yes"/>
      <point x="176" y="269"/>
      <point x="176" y="200" type="qcurve"/>
    </contour>
  </outline>
</glyph>
<glyph name="i" format="2">
  <advance width="266"/>
  <unicode hex="0069"/>
  <outline>
    <contour>
      <point x="86" y="0" type="line"/>
      <point x="86" y="300" type="line"/>
      <point x="180" y="300" type="line"/>
      <point x="180" y="0" type="line"/>
    </contour>
    <contour>
      <point x="133" y="422" type="qcurve" smooth="yes"/>
      <point x="185" y="422"/>
      <point x="185" y="370" type="qcurve" smooth="yes"/>
      <point x="185" y="318"/>
      <point x="133" y="318" type="qcurve" smooth="yes"/>
      <point x="81" y="318"/>
      <point x="81" y="370" type="qcurve" smooth="yes"/>
      <point x="81" y="422"/>
    </contour>
  </outline>
</glyph>
<glyph name="j" format="2">
  <advance width="254"/>
  <unicode hex="006A"/>
  <outline>
    <contour>
      <point x="198" y="-30" type="qcurve" smooth="yes"/>
      <point x="198" y="300" type="line"/>
      <point x="103" y="300" type="line"/>
      <point x="103" y="-30" type="line" smooth="yes"/>
      <point x="103" y="-115"/>
      <point x="53" y="-115" type="qcurve" smooth="yes"/>
      <point x="28" y="-115" type="line"/>
      <point x="28" y="-150" type="line"/>
      <point x="53" y="-150" type="line" smooth="yes"/>
      <point x="198" y="-150"/>
    </contour>
    <contour>
      <point x="150" y="417" type="qcurve" smooth="yes"/>
      <point x="198" y="417"/>
      <point x="198" y="370" type="qcurve" smooth="yes"/>
      <point x="198" y="323"/>
      <point x="150" y="323" type="qcurve" smooth="yes"/>
      <point x="103" y="323"/>
      <point x="103" y="370" type="qcurve" smooth="yes"/>
      <point x="103" y="417"/>
    </contour>
  </outline>
</glyph>
<glyph name="k" format="2">
  <advance width="621"/>
  <unicode hex="006B"/>
  <outline>
    <contour>
      <point x="81" y="0" type="line"/>
      <point x="81" y="450" type="line"/>
      <point x="176" y="450" type="line"/>
      <point x="176" y="0" type="line"/>
    </contour>
    <contour>
      <point x="176" y="234" type="line"/>
      <point x="300" y="300" type="line"/>
      <point x="501" y="300" type="line"/>
      <point x="276" y="180" type="line"/>
      <point x="613" y="0" type="line"/>
      <point x="413" y="0" type="line"/>
      <point x="176" y="126" type="line"/>
    </contour>
  </outline>
</glyph>
<glyph name="m" format="2">
  <advance width="1032"/>
  <unicode hex="006D"/>
  <outline>
    <contour>
      <point x="81" y="0" type="line"/>
      <point x="81" y="300" type="line"/>
      <point x="176" y="300" type="line"/>
      <point x="176" y="0" type="line"/>
    </contour>
    <contour>
      <point x="158" y="200" type="line"/>
      <point x="158" y="304"/>
      <point x="288" y="304" type="qcurve" smooth="yes"/>
      <point x="368" y="304" type="line" smooth="yes"/>
      <point x="576" y="304"/>
      <point x="576" y="200" type="qcurve" smooth="yes"/>
      <point x="576" y="0" type="line"/>
      <point x="481" y="0" type="line"/>
      <point x="481" y="200" type="line" smooth="yes"/>
      <point x="481" y="269"/>
      <point x="368" y="269" type="qcurve" smooth="yes"/>
      <point x="288" y="269" type="line" smooth="yes"/>
      <point x="176" y="269"/>
      <point x="176" y="200" type="qcurve"/>
    </contour>
    <contour>
      <point x="558" y="200" type="line"/>
      <point x="558" y="304"/>
      <point x="688" y="304" type="qcurve" smooth="yes"/>
      <point x="768" y="304" type="line" smooth="yes"/>
      <point x="976" y="304"/>
      <point x="976" y="200" type="qcurve" smooth="yes"/>
      <point x="976" y="0" type="line"/>
      <point x="881" y="0" type="line"/>
      <point x="881" y="200" type="line" smooth="yes"/>
      <point x="881" y="269"/>
      <point x="768" y="269" type="qcurve" smooth="yes"/>
      <point x="688" y="269" type="line" smooth="yes"/>
      <point x="576" y="269"/>
      <point x="576" y="200" type="qcurve"/>
    </contour>
  </outline>
</glyph>
<glyph name="n" format="2">
  <advance width="682"/>
  <unicode hex="006E"/>
  <outline>
    <contour>
      <point x="81" y="0" type="line"/>
      <point x="81" y="300" type="line"/>
      <point x="176" y="300" type="line"/>
      <point x="176" y="0" type="line"/>
    </contour>
    <contour>
      <point x="158" y="200" type="line"/>
      <point x="158" y="304"/>
      <point x="308" y="304" type="qcurve" smooth="yes"/>
      <point x="398" y="304" type="line" smooth="yes"/>
      <point x="626" y="304"/>
      <point x="626" y="200" type="qcurve" smooth="yes"/>
      <point x="626" y="0" type="line"/>
      <point x="531" y="0" type="line"/>
      <point x="531" y="200" type="line" smooth="yes"/>
      <point x="531" y="269"/>
      <point x="398" y="269" type="qcurve" smooth="yes"/>
      <point x="308" y="269" type="line" smooth="yes"/>
      <point x="176" y="269"/>
      <point x="176" y="200" type="qcurve"/>
    </contour>
  </outline>
</glyph>
<glyph name="o" format="2">
  <advance width="657"/>
  <unicode hex="006F"/>
  <outline>
    <contour>
      <point x="279" y="304" type="qcurve" smooth="yes"/>
      <point x="377" y="304" type="line" smooth="yes"/>
      <point x="621" y="304"/>
      <point x="621" y="180" type="qcurve" smooth="yes"/>
      <point x="621" y="120" type="line" smooth="yes"/>
      <point x="621" y="-3"/>
      <point x="377" y="-3" type="qcurve" smooth="yes"/>
      <point x="279" y="-3" type="line" smooth="yes"/>
      <point x="36" y="-3"/>
      <point x="36" y="120" type="qcurve" smooth="yes"/>
      <point x="36" y="180" type="line" smooth="yes"/>
      <point x="36" y="304"/>
    </contour>
    <contour>
      <point x="279" y="269" type="line" smooth="yes"/>
      <point x="131" y="269"/>
      <point x="131" y="180" type="qcurve" smooth="yes"/>
      <point x="131" y="120" type="line" smooth="yes"/>
      <point x="131" y="32"/>
      <point x="279" y="32" type="qcurve" smooth="yes"/>
      <point x="377" y="32" type="line" smooth="yes"/>
      <point x="526" y="32"/>
      <point x="526" y="120" type="qcurve" smooth="yes"/>
      <point x="526" y="180" type="line" smooth="yes"/>
      <point x="526" y="269"/>
      <point x="377" y="269" type="qcurve" smooth="yes"/>
    </contour>
  </outline>
</glyph>
<glyph name="p" format="2">
  <advance width="696"/>
  <unicode hex="0070"/>
  <outline>
    <contour>
      <point x="318" y="304" type="qcurve" smooth="yes"/>
      <point x="413" y="304" type="line" smooth="yes"/>
      <point x="660" y="304"/>
      <point x="660" y="180" type="qcurve" smooth="yes"/>
      <point x="660" y="120" type="line" smooth="yes"/>
      <point x="660" y="-3"/>
      <point x="413" y="-3" type="qcurve" smooth="yes"/>
      <point x="318" y="-3" type="line" smooth="yes"/>
      <point x="81" y="-3"/>
      <point x="81" y="120" type="qcurve" smooth="yes"/>
      <point x="81" y="180" type="line" smooth="yes"/>
      <point x="81" y="304"/>
    </contour>
    <contour>
      <point x="318" y="269" type="line" smooth="yes"/>
      <point x="176" y="269"/>
      <point x="176" y="180" type="qcurve" smooth="yes"/>
      <point x="176" y="120" type="line" smooth="yes"/>
      <point x="176" y="32"/>
      <point x="318" y="32" type="qcurve" smooth="yes"/>
      <point x="413" y="32" type="line" smooth="yes"/>
      <point x="556" y="32"/>
      <point x="556" y="120" type="qcurve" smooth="yes"/>
      <point x="556" y="180" type="line" smooth="yes"/>
      <point x="556" y="269"/>
      <point x="413" y="269" type="qcurve" smooth="yes"/>
    </contour>
    <contour>
      <point x="81" y="-150" type="line"/>
      <point x="81" y="300" type="line"/>
      <point x="176" y="300" type="line"/>
      <point x="176" y="-150" type="line"/>
    </contour>
  </outline>
</glyph>
<glyph name="q" format="2">
  <advance width="696"/>
  <unicode hex="0071"/>
  <outline>
    <contour>
      <point x="283" y="304" type="qcurve" smooth="yes"/>
      <point x="378" y="304" type="line" smooth="yes"/>
      <point x="615" y="304"/>
      <point x="615" y="180" type="qcurve" smooth="yes"/>
      <point x="615" y="120" type="line" smooth="yes"/>
      <point x="615" y="-3"/>
      <point x="378" y="-3" type="qcurve" smooth="yes"/>
      <point x="283" y="-3" type="line" smooth="yes"/>
      <point x="36" y="-3"/>
      <point x="36" y="120" type="qcurve" smooth="yes"/>
      <point x="36" y="180" type="line" smooth="yes"/>
      <point x="36" y="304"/>
    </contour>
    <contour>
      <point x="283" y="269" type="line" smooth="yes"/>
      <point x="140" y="269"/>
      <point x="140" y="180" type="qcurve" smooth="yes"/>
      <point x="140" y="120" type="line" smooth="yes"/>
      <point x="140" y="32"/>
      <point x="283" y="32" type="qcurve" smooth="yes"/>
      <point x="378" y="32" type="line" smooth="yes"/>
      <point x="520" y="32"/>
      <point x="520" y="120" type="qcurve" smooth="yes"/>
      <point x="520" y="180" type="line" smooth="yes"/>
      <point x="520" y="269"/>
      <point x="378" y="269" type="qcurve" smooth="yes"/>
    </contour>
    <contour>
      <point x="520" y="-150" type="line"/>
      <point x="520" y="300" type="line"/>
      <point x="615" y="300" type="line"/>
      <point x="615" y="-150" type="line"/>
    </contour>
  </outline>
</glyph>
<glyph name="r" format="2">
  <advance width="465"/>
  <unicode hex="0072"/>
  <outline>
    <contour>
      <point x="81" y="0" type="line"/>
      <point x="81" y="300" type="line"/>
      <point x="176" y="300" type="line"/>
      <point x="176" y="0" type="line"/>
    </contour>
    <contour>
      <point x="158" y="200" type="line"/>
      <point x="158" y="304"/>
      <point x="328" y="304" type="qcurve" smooth="yes"/>
      <point x="428" y="304" type="line"/>
      <point x="428" y="269" type="line"/>
      <point x="328" y="269" type="line" smooth="yes"/>
      <point x="176" y="269"/>
      <point x="176" y="200" type="qcurve"/>
    </contour>
  </outline>
</glyph>
<glyph name="s" format="2">
  <advance width="627"/>
  <unicode hex="0073"/>
  <outline>
    <contour>
      <point x="588" y="218" type="line"/>
      <point x="588" y="304"/>
      <point x="360" y="304" type="qcurve" smooth="yes"/>
      <point x="270" y="304" type="line" smooth="yes"/>
      <point x="43" y="304"/>
      <point x="43" y="218" type="qcurve" smooth="yes"/>
      <point x="43" y="133"/>
      <point x="270" y="133" type="qcurve" smooth="yes"/>
      <point x="360" y="133" type="line" smooth="yes"/>
      <point x="497" y="133"/>
      <point x="497" y="82" type="qcurve" smooth="yes"/>
      <point x="497" y="32"/>
      <point x="360" y="32" type="qcurve" smooth="yes"/>
      <point x="270" y="32" type="line" smooth="yes"/>
      <point x="131" y="32"/>
      <point x="131" y="82" type="qcurve"/>
      <point x="36" y="82" type="line"/>
      <point x="36" y="-3"/>
      <point x="270" y="-3" type="qcurve" smooth="yes"/>
      <point x="360" y="-3" type="line" smooth="yes"/>
      <point x="591" y="-3"/>
      <point x="591" y="82" type="qcurve" smooth="yes"/>
      <point x="591" y="168"/>
      <point x="360" y="168" type="qcurve" smooth="yes"/>
      <point x="270" y="168" type="line" smooth="yes"/>
      <point x="138" y="168"/>
      <point x="138" y="218" type="qcurve" smooth="yes"/>
      <point x="138" y="269"/>
      <point x="270" y="269" type="qcurve" smooth="yes"/>
      <point x="360" y="269" type="line" smooth="yes"/>
      <point x="493" y="269"/>
      <point x="493" y="218" type="qcurve"/>
    </contour>
  </outline>
</glyph>
<glyph name="t" format="2">
  <advance width="280"/>
  <unicode hex="0074"/>
  <outline>
    <contour>
      <point x="82" y="60" type="qcurve" smooth="yes"/>
      <point x="82" y="350" type="line"/>
      <point x="177" y="350" type="line"/>
      <point x="177" y="60" type="line" smooth="yes"/>
      <point x="177" y="32"/>
      <point x="227" y="32" type="qcurve" smooth="yes"/>
      <point x="252" y="32" type="line"/>
      <point x="252" y="-3" type="line"/>
      <point x="227" y="-3" type="line" smooth="yes"/>
      <point x="82" y="-3"/>
    </contour>
    <contour>
      <point x="32" y="300" type="line"/>
      <point x="252" y="300" type="line"/>
      <point x="252" y="265" type="line"/>
      <point x="32" y="265" type="line"/>
    </contour>
  </outline>
</glyph>
<glyph name="u" format="2">
  <advance width="641"/>
  <unicode hex="0075"/>
  <outline>
    <contour>
      <point x="56" y="300" type="line"/>
      <point x="56" y="100" type="line" smooth="yes"/>
      <point x="56" y="-3"/>
      <point x="267" y="-3" type="qcurve" smooth="yes"/>
      <point x="349" y="-3" type="line" smooth="yes"/>
      <point x="484" y="-3"/>
      <point x="484" y="100" type="qcurve"/>
      <point x="466" y="100" type="line"/>
      <point x="466" y="32"/>
      <point x="349" y="32" type="qcurve" smooth="yes"/>
      <point x="267" y="32" type="line" smooth="yes"/>
      <point x="151" y="32"/>
      <point x="151" y="100" type="qcurve" smooth="yes"/>
      <point x="151" y="300" type="line"/>
    </contour>
    <contour>
      <point x="466" y="0" type="line"/>
      <point x="561" y="0" type="line"/>
      <point x="561" y="300" type="line"/>
      <point x="466" y="300" type="line"/>
    </contour>
  </outline>
</glyph>
<glyph name="v" format="2">
  <advance width="476"/>
  <unicode hex="0076"/>
  <outline>
    <contour>
      <point x="8" y="300" type="line"/>
      <point x="194" y="0" type="line"/>
      <point x="282" y="0" type="line"/>
      <point x="468" y="300" type="line"/>
      <point x="402" y="300" type="line"/>
      <point x="238" y="29" type="line"/>
      <point x="74" y="300" type="line"/>
    </contour>
  </outline>
</glyph>
<glyph name="w" format="2">
  <advance width="752"/>
  <unicode hex="0077"/>
  <outline>
    <contour>
      <point x="8" y="300" type="line"/>
      <point x="153" y="0" type="line"/>
      <point x="231" y="0" type="line"/>
      <point x="376" y="258" type="line"/>
      <point x="521" y="0" type="line"/>
      <point x="599" y="0" type="line"/>
      <point x="744" y="300" type="line"/>
      <point x="686" y="300" type="line"/>
      <point x="560" y="42" type="line"/>
      <point x="415" y="300" type="line"/>
      <point x="337" y="300" type="line"/>
      <point x="192" y="42" type="line"/>
      <point x="66" y="300" type="line"/>
    </contour>
  </outline>
</glyph>
<glyph name="x" format="2">
  <advance width="574"/>
  <unicode hex="0078"/>
  <outline>
    <contour>
      <point x="8" y="0" type="line"/>
      <point x="408" y="300" type="line"/>
      <point x="566" y="300" type="line"/>
      <point x="165" y="0" type="line"/>
    </contour>
    <contour>
      <point x="408" y="0" type="line"/>
      <point x="8" y="300" type="line"/>
      <point x="165" y="300" type="line"/>
      <point x="566" y="0" type="line"/>
    </contour>
  </outline>
</glyph>
<glyph name="y" format="2">
  <advance width="617"/>
  <unicode hex="0079"/>
  <outline>
    <contour>
      <point x="56" y="300" type="line"/>
      <point x="56" y="100" type="line" smooth="yes"/>
      <point x="56" y="-3"/>
      <point x="267" y="-3" type="qcurve" smooth="yes"/>
      <point x="349" y="-3" type="line" smooth="yes"/>
      <point x="484" y="-3"/>
      <point x="484" y="100" type="qcurve"/>
      <point x="466" y="100" type="line"/>
      <point x="466" y="32"/>
      <point x="349" y="32" type="qcurve" smooth="yes"/>
      <point x="267" y="32" type="line" smooth="yes"/>
      <point x="151" y="32"/>
      <point x="151" y="100" type="qcurve" smooth="yes"/>
      <point x="151" y="300" type="line"/>
    </contour>
    <contour>
      <point x="561" y="300" type="line"/>
      <point x="466" y="300" type="line"/>
      <point x="466" y="-50" type="line" smooth="yes"/>
      <point x="466" y="-118"/>
      <point x="349" y="-118" type="qcurve" smooth="yes"/>
      <point x="267" y="-118" type="line" smooth="yes"/>
      <point x="151" y="-118"/>
      <point x="151" y="-50" type="qcurve"/>
      <point x="56" y="-50" type="line"/>
      <point x="56" y="-153"/>
      <point x="267" y="-153" type="qcurve" smooth="yes"/>
      <point x="349" y="-153" type="line" smooth="yes"/>
      <point x="561" y="-153"/>
      <point x="561" y="-50" type="qcurve" smooth="yes"/>
    </contour>
  </outline>
</glyph>
<glyph name="z" format="2">
  <advance width="464"/>
  <unicode hex="007A"/>
  <outline>
    <contour>
      <point x="32" y="300" type="line"/>
      <point x="432" y="300" type="line"/>
      <point x="432" y="265" type="line"/>
      <point x="203" y="35" type="line"/>
      <point x="432" y="35" type="line"/>
      <point x="432" y="0" type="line"/>
      <point x="32" y="0" type="line"/>
      <point x="32" y="35" type="line"/>
      <point x="261" y="265" type="line"/>
      <point x="32" y="265" type="line"/>
    </contour>
  </outline>
</glyph>
<glyph name="a_dieresis" format="2">
  <advance width="654"/>
  <unicode hex="00E4"/>
  <outline>
    <contour>
      <point x="53" y="200" type="line"/>
      <point x="53" y="304"/>
      <point x="280" y="304" type="qcurve" smooth="yes"/>
      <point x="370" y="304" type="line" smooth="yes"/>
      <point x="597" y="304"/>
      <point x="597" y="200" type="qcurve" smooth="yes"/>
      <point x="597" y="0" type="line"/>
      <point x="503" y="0" type="line"/>
      <point x="503" y="200" type="line" smooth="yes"/>
      <point x="503" y="269"/>
      <point x="370" y="269" type="qcurve" smooth="yes"/>
      <point x="280" y="269" type="line" smooth="yes"/>
      <point x="147" y="269"/>
      <point x="147" y="200" type="qcurve"/>
    </contour>
    <contour>
      <point x="503" y="215" type="line" smooth="yes"/>
      <point x="503" y="165"/>
      <point x="453" y="165" type="qcurve" smooth="yes"/>
      <point x="280" y="165" type="line" smooth="yes"/>
      <point x="152" y="165"/>
      <point x="152" y="100" type="qcurve" smooth="yes"/>
      <point x="152" y="32"/>
      <point x="280" y="32" type="qcurve" smooth="yes"/>
      <point x="370" y="32" type="line" smooth="yes"/>
      <point x="503" y="32"/>
      <point x="503" y="85" type="qcurve"/>
      <point x="503" y="50" type="line" smooth="yes"/>
      <point x="503" y="-3"/>
      <point x="370" y="-3" type="qcurve" smooth="yes"/>
      <point x="280" y="-3" type="line" smooth="yes"/>
      <point x="48" y="-3"/>
      <point x="48" y="100" type="qcurve" smooth="yes"/>
      <point x="48" y="200"/>
      <point x="280" y="200" type="qcurve" smooth="yes"/>
      <point x="453" y="200" type="line" smooth="yes"/>
      <point x="503" y="200"/>
      <point x="503" y="250" type="qcurve"/>
    </contour>
    <contour>
      <point x="144" y="417" type="qcurve" smooth="yes"/>
      <point x="191" y="417"/>
      <point x="191" y="370" type="qcurve" smooth="yes"/>
      <point x="191" y="323"/>
      <point x="144" y="323" type="qcurve" smooth="yes"/>
      <point x="96" y="323"/>
      <point x="96" y="370" type="qcurve" smooth="yes"/>
      <point x="96" y="417"/>
    </contour>
    <contour>
      <point x="506" y="417" type="qcurve" smooth="yes"/>
      <point x="553" y="417"/>
      <point x="553" y="370" type="qcurve" smooth="yes"/>
      <point x="553" y="323"/>
      <point x="506" y="323" type="qcurve" smooth="yes"/>
      <point x="459" y="323"/>
      <point x="459" y="370" type="qcurve" smooth="yes"/>
      <point x="459" y="417"/>
    </contour>
  </outline>
</glyph>
<glyph name="c_cedilla" format="2">
  <advance width="658"/>
  <unicode hex="00E7"/>
  <outline>
    <contour>
      <point x="511" y="180" type="line"/>
      <point x="506" y="269"/>
      <point x="370" y="269" type="qcurve" smooth="yes"/>
      <point x="276" y="269" type="line" smooth="yes"/>
      <point x="140" y="269"/>
      <point x="140" y="180" type="qcurve" smooth="yes"/>
      <point x="140" y="120" type="line" smooth="yes"/>
      <point x="140" y="32"/>
      <point x="276" y="32" type="qcurve" smooth="yes"/>
      <point x="370" y="32" type="line" smooth="yes"/>
      <point x="506" y="32"/>
      <point x="506" y="120" type="qcurve"/>
      <point x="610" y="120" type="line"/>
      <point x="610" y="-3"/>
      <point x="370" y="-3" type="qcurve" smooth="yes"/>
      <point x="276" y="-3" type="line" smooth="yes"/>
      <point x="36" y="-3"/>
      <point x="36" y="120" type="qcurve" smooth="yes"/>
      <point x="36" y="180" type="line" smooth="yes"/>
      <point x="36" y="304"/>
      <point x="276" y="304" type="qcurve" smooth="yes"/>
      <point x="370" y="304" type="line" smooth="yes"/>
      <point x="610" y="304"/>
      <point x="610" y="180" type="qcurve"/>
    </contour>
    <contour>
      <point x="305" y="-3" type="line"/>
      <point x="330" y="-3" type="line"/>
      <point x="365" y="-38" type="line"/>
      <point x="323" y="-38" type="line" smooth="yes"/>
      <point x="276" y="-38"/>
      <point x="276" y="-47" type="qcurve" smooth="yes"/>
      <point x="276" y="-56"/>
      <point x="323" y="-56" type="qcurve" smooth="yes"/>
      <point x="365" y="-56" type="line"/>
      <point x="365" y="-73" type="line"/>
      <point x="323" y="-73" type="line" smooth="yes"/>
      <point x="229" y="-73"/>
      <point x="229" y="-47" type="qcurve" smooth="yes"/>
      <point x="229" y="-21"/>
      <point x="323" y="-21" type="qcurve"/>
    </contour>
  </outline>
</glyph>
<glyph name="o_dieresis" format="2">
  <advance width="657"/>
  <unicode hex="00F6"/>
  <outline>
    <contour>
      <point x="279" y="304" type="qcurve" smooth="yes"/>
      <point x="377" y="304" type="line" smooth="yes"/>
      <point x="621" y="304"/>
      <point x="621" y="180" type="qcurve" smooth="yes"/>
      <point x="621" y="120" type="line" smooth="yes"/>
      <point x="621" y="-3"/>
      <point x="377" y="-3" type="qcurve" smooth="yes"/>
      <point x="279" y="-3" type="line" smooth="yes"/>
      <point x="36" y="-3"/>
      <point x="36" y="120" type="qcurve" smooth="yes"/>
      <point x="36" y="180" type="line" smooth="yes"/>
      <point x="36" y="304"/>
    </contour>
    <contour>
      <point x="279" y="269" type="line" smooth="yes"/>
      <point x="131" y="269"/>
      <point x="131" y="180" type="qcurve" smooth="yes"/>
      <point x="131" y="120" type="line" smooth="yes"/>
      <point x="131" y="32"/>
      <point x="279" y="32" type="qcurve" smooth="yes"/>
      <point x="377" y="32" type="line" smooth="yes"/>
      <point x="526" y="32"/>
      <point x="526" y="120" type="qcurve" smooth="yes"/>
      <point x="526" y="180" type="line" smooth="yes"/>
      <point x="526" y="269"/>
      <point x="377" y="269" type="qcurve" smooth="yes"/>
    </contour>
    <contour>
      <point x="127" y="417" type="qcurve" smooth="yes"/>
      <point x="174" y="417"/>
      <point x="174" y="370" type="qcurve" smooth="yes"/>
      <point x="174" y="323"/>
      <point x="127" y="323" type="qcurve" smooth="yes"/>
      <point x="80" y="323"/>
      <point x="80" y="370" type="qcurve" smooth="yes"/>
      <point x="80" y="417"/>
    </contour>
    <contour>
      <point x="530" y="417" type="qcurve" smooth="yes"/>
      <point x="577" y="417"/>
      <point x="577" y="370" type="qcurve" smooth="yes"/>
      <point x="577" y="323"/>
      <point x="530" y="323" type="qcurve" smooth="yes"/>
      <point x="482" y="323"/>
      <point x="482" y="370" type="qcurve" smooth="yes"/>
      <point x="482" y="417"/>
    </contour>
  </outline>
</glyph>
<glyph name="g_breve" format="2">
  <advance width="637"/>
  <unicode hex="011F"/>
  <outline>
    <contour>
      <point x="263" y="304" type="qcurve" smooth="yes"/>
      <point x="353" y="304" type="line" smooth="yes"/>
      <point x="581" y="304"/>
      <point x="581" y="180" type="qcurve" smooth="yes"/>
      <point x="581" y="120" type="line" smooth="yes"/>
      <point x="581" y="-3"/>
      <point x="353" y="-3" type="qcurve" smooth="yes"/>
      <point x="263" y="-3" type="line" smooth="yes"/>
      <point x="36" y="-3"/>
      <point x="36" y="120" type="qcurve" smooth="yes"/>
      <point x="36" y="180" type="line" smooth="yes"/>
      <point x="36" y="304"/>
    </contour>
    <contour>
      <point x="263" y="269" type="line" smooth="yes"/>
      <point x="131" y="269"/>
      <point x="131" y="180" type="qcurve" smooth="yes"/>
      <point x="131" y="120" type="line" smooth="yes"/>
      <point x="131" y="32"/>
      <point x="263" y="32" type="qcurve" smooth="yes"/>
      <point x="353" y="32" type="line" smooth="yes"/>
      <point x="486" y="32"/>
      <point x="486" y="120" type="qcurve" smooth="yes"/>
      <point x="486" y="180" type="line" smooth="yes"/>
      <point x="486" y="269"/>
      <point x="353" y="269" type="qcurve" smooth="yes"/>
    </contour>
    <contour>
      <point x="486" y="0" type="line"/>
      <point x="486" y="300" type="line"/>
      <point x="581" y="300" type="line"/>
      <point x="581" y="0" type="line"/>
      <point x="581" y="-50" type="line" smooth="yes"/>
      <point x="581" y="-167"/>
      <point x="353" y="-167" type="qcurve" smooth="yes"/>
      <point x="263" y="-167" type="line" smooth="yes"/>
      <point x="36" y="-167"/>
      <point x="36" y="-50" type="qcurve"/>
      <point x="131" y="-50" type="line"/>
      <point x="131" y="-132"/>
      <point x="263" y="-132" type="qcurve" smooth="yes"/>
      <point x="353" y="-132" type="line" smooth="yes"/>
      <point x="486" y="-132"/>
      <point x="486" y="-50" type="qcurve" smooth="yes"/>
    </contour>
    <contour>
      <point x="110" y="410" type="line"/>
      <point x="110" y="335"/>
      <point x="263" y="335" type="qcurve" smooth="yes"/>
      <point x="353" y="335" type="line" smooth="yes"/>
      <point x="507" y="335"/>
      <point x="507" y="410" type="qcurve"/>
      <point x="481" y="410" type="line"/>
      <point x="481" y="361"/>
      <point x="353" y="361" type="qcurve" smooth="yes"/>
      <point x="263" y="361" type="line" smooth="yes"/>
      <point x="136" y="361"/>
      <point x="136" y="410" type="qcurve"/>
    </contour>
  </outline>
</glyph>
<glyph name="s_cedilla" format="2">
  <advance width="627"/>
  <unicode hex="015F"/>
  <outline>
    <contour>
      <point x="588" y="218" type="line"/>
      <point x="588" y="304"/>
      <point x="360" y="304" type="qcurve" smooth="yes"/>
      <point x="270" y="304" type="line" smooth="yes"/>
      <point x="43" y="304"/>
      <point x="43" y="218" type="qcurve" smooth="yes"/>
      <point x="43" y="133"/>
      <point x="270" y="133" type="qcurve" smooth="yes"/>
      <point x="360" y="133" type="line" smooth="yes"/>
      <point x="497" y="133"/>
      <point x="497" y="82" type="qcurve" smooth="yes"/>
      <point x="497" y="32"/>
      <point x="360" y="32" type="qcurve" smooth="yes"/>
      <point x="270" y="32" type="line" smooth="yes"/>
      <point x="131" y="32"/>
      <point x="131" y="82" type="qcurve"/>
      <point x="36" y="82" type="line"/>
      <point x="36" y="-3"/>
      <point x="270" y="-3" type="qcurve" smooth="yes"/>
      <point x="360" y="-3" type="line" smooth="yes"/>
      <point x="591" y="-3"/>
      <point x="591" y="82" type="qcurve" smooth="yes"/>
      <point x="591" y="168"/>
      <point x="360" y="168" type="qcurve" smooth="yes"/>
      <point x="270" y="168" type="line" smooth="yes"/>
      <point x="138" y="168"/>
      <point x="138" y="218" type="qcurve" smooth="yes"/>
      <point x="138" y="269"/>
      <point x="270" y="269" type="qcurve" smooth="yes"/>
      <point x="360" y="269" type="line" smooth="yes"/>
      <point x="493" y="269"/>
      <point x="493" y="218" type="qcurve"/>
    </contour>
    <contour>
      <point x="298" y="-3" type="line"/>
      <point x="322" y="-3" type="line"/>
      <point x="357" y="-38" type="line"/>
      <point x="315" y="-38" type="line" smooth="yes"/>
      <point x="270" y="-38"/>
      <point x="270" y="-47" type="qcurve" smooth="yes"/>
      <point x="270" y="-56"/>
      <point x="315" y="-56" type="qcurve" smooth="yes"/>
      <point x="357" y="-56" type="line"/>
      <point x="357" y="-73" type="line"/>
      <point x="315" y="-73" type="line" smooth="yes"/>
      <point x="223" y="-73"/>
      <point x="223" y="-47" type="qcurve" smooth="yes"/>
      <point x="223" y="-21"/>
      <point x="315" y="-21" type="qcurve"/>
    </contour>
  </outline>
</glyph>
<glyph name="bullet" format="2">
  <advance width="337"/>
  <unicode hex="2022"/>
  <outline>
    <contour>
      <point x="169" y="238" type="qcurve" smooth="yes"/>
      <point x="256" y="238"/>
      <point x="256" y="150" type="qcurve" smooth="yes"/>
      <point x="256" y="63"/>
      <point x="169" y="63" type="qcurve" smooth="yes"/>
      <point x="81" y="63"/>
      <point x="81" y="150" type="qcurve" smooth="yes"/>
      <point x="81" y="238"/>
    </contour>
  </outline>
</glyph>
<glyph name=".notdef" format="2">
  <advance width="662"/>
  <outline>
    <contour>
      <point x="81" y="0" type="line"/>
      <point x="81" y="450" type="line"/>
      <point x="581" y="450" type="line"/>
      <point x="581" y="0" type="line"/>
    </contour>
    <contour>
      <point x="176" y="35" type="line"/>
      <point x="487" y="35" type="line"/>
      <point x="487" y="415" type="line"/>
      <point x="176" y="415" type="line"/>
    </contour>
    <contour>
      <point x="104" y="35" type="line"/>
      <point x="415" y="415" type="line"/>
      <point x="558" y="415" type="line"/>
      <point x="247" y="35" type="line"/>
    </contour>
    <contour>
      <point x="415" y="35" type="line"/>
      <point x="104" y="415" type="line"/>
      <point x="247" y="415" type="line"/>
      <point x="558" y="35" type="line"/>
    </contour>
  </outline>
</glyph>
